<svg width="136" height="136" viewBox="0 0 136 136" fill="none" xmlns="http://www.w3.org/2000/svg">
<path d="M10 34.5L68 1L126 34.5V101.5L68 135L10 101.5L10 34.5Z" fill="url(#paint0_linear_0_95)"/>
<path d="M31.0114 88.4545H33.1136L38.0568 100.528H38.2273L43.1705 88.4545H45.2727V103H43.625V91.9489H43.483L38.9375 103H37.3466L32.8011 91.9489H32.6591V103H31.0114V88.4545ZM53.0089 103.227C52.024 103.227 51.1599 102.993 50.4165 102.524C49.6779 102.055 49.1003 101.4 48.6836 100.557C48.2717 99.714 48.0657 98.7292 48.0657 97.6023C48.0657 96.4659 48.2717 95.474 48.6836 94.6264C49.1003 93.7789 49.6779 93.1207 50.4165 92.652C51.1599 92.1832 52.024 91.9489 53.0089 91.9489C53.9937 91.9489 54.8555 92.1832 55.5941 92.652C56.3375 93.1207 56.9151 93.7789 57.3271 94.6264C57.7437 95.474 57.9521 96.4659 57.9521 97.6023C57.9521 98.7292 57.7437 99.714 57.3271 100.557C56.9151 101.4 56.3375 102.055 55.5941 102.524C54.8555 102.993 53.9937 103.227 53.0089 103.227ZM53.0089 101.722C53.757 101.722 54.3725 101.53 54.8555 101.146C55.3384 100.763 55.6959 100.259 55.9279 99.6335C56.1599 99.0085 56.2759 98.3314 56.2759 97.6023C56.2759 96.8731 56.1599 96.1937 55.9279 95.5639C55.6959 94.9342 55.3384 94.4252 54.8555 94.0369C54.3725 93.6487 53.757 93.4545 53.0089 93.4545C52.2608 93.4545 51.6452 93.6487 51.1623 94.0369C50.6793 94.4252 50.3219 94.9342 50.0898 95.5639C49.8578 96.1937 49.7418 96.8731 49.7418 97.6023C49.7418 98.3314 49.8578 99.0085 50.0898 99.6335C50.3219 100.259 50.6793 100.763 51.1623 101.146C51.6452 101.53 52.2608 101.722 53.0089 101.722ZM60.5107 103V92.0909H62.13V93.7386H62.2436C62.4425 93.1989 62.8023 92.7609 63.3232 92.4247C63.844 92.0885 64.4311 91.9205 65.0845 91.9205C65.2076 91.9205 65.3615 91.9228 65.5462 91.9276C65.7308 91.9323 65.8705 91.9394 65.9652 91.9489V93.6534C65.9084 93.6392 65.7782 93.6179 65.5746 93.5895C65.3757 93.5563 65.165 93.5398 64.9425 93.5398C64.4122 93.5398 63.9387 93.651 63.522 93.8736C63.1101 94.0914 62.7834 94.3944 62.5419 94.7827C62.3052 95.1662 62.1868 95.6042 62.1868 96.0966V103H60.5107ZM69.6282 96.4375V103H67.9521V92.0909H69.5714V93.7955H69.7134C69.9691 93.2415 70.3574 92.7964 70.8782 92.4602C71.399 92.1193 72.0714 91.9489 72.8952 91.9489C73.6339 91.9489 74.2802 92.1004 74.8342 92.4034C75.3881 92.7017 75.819 93.1562 76.1268 93.767C76.4345 94.3731 76.5884 95.1402 76.5884 96.0682V103H74.9123V96.1818C74.9123 95.3248 74.6897 94.6572 74.2447 94.179C73.7996 93.696 73.1888 93.4545 72.4123 93.4545C71.8772 93.4545 71.399 93.5705 70.9776 93.8026C70.561 94.0346 70.2319 94.3731 69.9904 94.8182C69.7489 95.2633 69.6282 95.803 69.6282 96.4375ZM79.6513 103V92.0909H81.3274V103H79.6513ZM80.5036 90.2727C80.1768 90.2727 79.8951 90.1615 79.6584 89.9389C79.4264 89.7164 79.3104 89.4489 79.3104 89.1364C79.3104 88.8239 79.4264 88.5563 79.6584 88.3338C79.8951 88.1113 80.1768 88 80.5036 88C80.8303 88 81.1096 88.1113 81.3416 88.3338C81.5784 88.5563 81.6967 88.8239 81.6967 89.1364C81.6967 89.4489 81.5784 89.7164 81.3416 89.9389C81.1096 90.1615 80.8303 90.2727 80.5036 90.2727ZM86.0735 96.4375V103H84.3974V92.0909H86.0167V93.7955H86.1587C86.4144 93.2415 86.8027 92.7964 87.3235 92.4602C87.8443 92.1193 88.5167 91.9489 89.3406 91.9489C90.0792 91.9489 90.7255 92.1004 91.2795 92.4034C91.8335 92.7017 92.2643 93.1562 92.5721 93.767C92.8799 94.3731 93.0337 95.1402 93.0337 96.0682V103H91.3576V96.1818C91.3576 95.3248 91.1351 94.6572 90.69 94.179C90.2449 93.696 89.6341 93.4545 88.8576 93.4545C88.3226 93.4545 87.8443 93.5705 87.4229 93.8026C87.0063 94.0346 86.6772 94.3731 86.4357 94.8182C86.1942 95.2633 86.0735 95.803 86.0735 96.4375ZM100.5 107.318C99.6903 107.318 98.9943 107.214 98.4119 107.006C97.8295 106.802 97.3442 106.532 96.956 106.196C96.5724 105.865 96.267 105.509 96.0398 105.131L97.375 104.193C97.5265 104.392 97.7183 104.619 97.9503 104.875C98.1823 105.135 98.4995 105.36 98.902 105.55C99.3092 105.744 99.8419 105.841 100.5 105.841C101.381 105.841 102.107 105.628 102.68 105.202C103.253 104.776 103.54 104.108 103.54 103.199V100.983H103.398C103.275 101.182 103.099 101.428 102.872 101.722C102.65 102.01 102.328 102.268 101.906 102.496C101.49 102.718 100.926 102.83 100.216 102.83C99.3352 102.83 98.5445 102.621 97.8438 102.205C97.1477 101.788 96.5961 101.182 96.1889 100.386C95.7865 99.5909 95.5852 98.625 95.5852 97.4886C95.5852 96.3712 95.7817 95.3982 96.1747 94.5696C96.5677 93.7363 97.1146 93.0923 97.8153 92.6378C98.5161 92.1785 99.3258 91.9489 100.244 91.9489C100.955 91.9489 101.518 92.0672 101.935 92.304C102.356 92.536 102.678 92.8011 102.901 93.0994C103.128 93.393 103.303 93.6345 103.426 93.8239H103.597V92.0909H105.216V103.312C105.216 104.25 105.003 105.012 104.577 105.599C104.155 106.191 103.587 106.625 102.872 106.899C102.162 107.179 101.371 107.318 100.5 107.318ZM100.443 101.324C101.116 101.324 101.684 101.17 102.148 100.862C102.612 100.554 102.964 100.112 103.206 99.5341C103.447 98.9564 103.568 98.2652 103.568 97.4602C103.568 96.6742 103.45 95.9806 103.213 95.3793C102.976 94.7779 102.626 94.3068 102.162 93.9659C101.698 93.625 101.125 93.4545 100.443 93.4545C99.733 93.4545 99.1411 93.6345 98.6676 93.9943C98.1989 94.3542 97.8461 94.8371 97.6094 95.4432C97.3774 96.0492 97.2614 96.7216 97.2614 97.4602C97.2614 98.2178 97.3797 98.8878 97.6165 99.4702C97.858 100.048 98.2131 100.502 98.6818 100.834C99.1553 101.161 99.7424 101.324 100.443 101.324Z" fill="white"/>
<rect opacity="0.01" x="40" y="28" width="56" height="56" fill="white"/>
<path d="M51.0234 74.2289C49.9344 75.316 49.9362 77.0846 51.0288 78.1788C52.123 79.2714 53.8917 79.2731 54.9805 78.1844L63.6829 69.4822L59.7255 65.525L51.0234 74.2289Z" fill="white"/>
<path d="M94.2807 41.3726L86.4311 49.2493L85.1201 47.9338L92.7092 39.7941L91.9738 39.0562L83.807 46.6162L82.494 45.3004L90.1175 37.1951L89.3244 36.3976L81.1828 43.9829L79.8698 42.6651L87.7191 34.7883L86.9351 34C86.9351 34 79.5451 39.8138 75.8966 42.8145C74.6176 43.8638 74.103 45.6404 74.2822 47.2911C74.528 49.523 74.7987 50.3888 73.895 51.2959L66.239 58.9764C56.4183 49.1179 45.6683 38.329 44.5616 37.2345C43.9106 36.5901 42.9776 36.5901 42.3931 37.177C40.3556 39.2217 46.5077 51.4365 54.612 61.6746C56.3017 59.97 57.839 58.4364 57.839 58.4364L77.5219 78.1858C78.7396 79.4082 80.5119 79.1255 81.4466 78.1858H81.4483C82.5317 77.0988 82.5317 75.333 81.4483 74.2457C79.3655 72.156 75.0964 67.8683 70.1764 62.9273L77.8245 55.2522C78.7432 54.3307 79.5915 54.6134 81.8161 54.8742C83.4858 55.0705 85.3137 54.5666 86.3668 53.2544C89.3334 49.5481 95.0001 42.0928 95.0001 42.0928L94.2807 41.3726Z" fill="white"/>
<defs>
<linearGradient id="paint0_linear_0_95" x1="35.9565" y1="166.202" x2="157.019" y2="119.302" gradientUnits="userSpaceOnUse">
<stop stop-color="#FFCC21"/>
<stop offset="1" stop-color="#FF963C"/>
</linearGradient>
</defs>
</svg>
