<svg width="136" height="136" viewBox="0 0 136 136" fill="none" xmlns="http://www.w3.org/2000/svg">
<g clip-path="url(#clip0_0_98)">
<path d="M10 34.5L68 1L126 34.5V101.5L68 135L10 101.5L10 34.5Z" fill="url(#paint0_linear_0_98)"/>
<path d="M48.8292 92.0909C48.744 91.3712 48.3983 90.8125 47.7923 90.4148C47.1862 90.017 46.4428 89.8182 45.5621 89.8182C44.9182 89.8182 44.3548 89.9223 43.8718 90.1307C43.3936 90.339 43.0195 90.6255 42.7496 90.9901C42.4845 91.3546 42.3519 91.7689 42.3519 92.233C42.3519 92.6212 42.4442 92.955 42.6289 93.2344C42.8183 93.509 43.0598 93.7386 43.3533 93.9233C43.6469 94.1032 43.9547 94.2524 44.2766 94.3707C44.5986 94.4844 44.8945 94.5767 45.1644 94.6477L46.6417 95.0455C47.0205 95.1449 47.4419 95.2822 47.9059 95.4574C48.3746 95.6326 48.8221 95.8717 49.2482 96.1747C49.6791 96.473 50.0342 96.8565 50.3136 97.3253C50.5929 97.794 50.7326 98.3693 50.7326 99.0511C50.7326 99.8371 50.5266 100.547 50.1147 101.182C49.7075 101.816 49.1109 102.321 48.3249 102.695C47.5437 103.069 46.5943 103.256 45.4769 103.256C44.4353 103.256 43.5333 103.088 42.771 102.751C42.0134 102.415 41.4168 101.946 40.9812 101.345C40.5503 100.744 40.3065 100.045 40.2496 99.25H42.0678C42.1152 99.7992 42.2998 100.254 42.6218 100.614C42.9485 100.969 43.3604 101.234 43.8576 101.409C44.3595 101.58 44.8993 101.665 45.4769 101.665C46.1493 101.665 46.753 101.556 47.288 101.338C47.823 101.116 48.2468 100.808 48.5593 100.415C48.8718 100.017 49.0281 99.553 49.0281 99.0227C49.0281 98.5398 48.8931 98.1468 48.6232 97.8438C48.3533 97.5407 47.9982 97.2945 47.5579 97.1051C47.1175 96.9157 46.6417 96.75 46.1303 96.608L44.3406 96.0966C43.2042 95.7699 42.3046 95.3035 41.6417 94.6974C40.9788 94.0914 40.6474 93.2983 40.6474 92.3182C40.6474 91.5038 40.8675 90.7936 41.3079 90.1875C41.753 89.5767 42.3496 89.1032 43.0977 88.767C43.8505 88.4261 44.6909 88.2557 45.619 88.2557C46.5565 88.2557 47.3898 88.4238 48.119 88.7599C48.8481 89.0914 49.4258 89.5459 49.8519 90.1236C50.2828 90.7012 50.5101 91.357 50.5337 92.0909H48.8292ZM55.0774 96.4375V103H53.4013V92.0909H55.0206V93.7955H55.1626C55.4183 93.2415 55.8066 92.7964 56.3274 92.4602C56.8482 92.1193 57.5206 91.9489 58.3445 91.9489C59.0831 91.9489 59.7294 92.1004 60.2834 92.4034C60.8374 92.7017 61.2682 93.1562 61.576 93.767C61.8838 94.3731 62.0376 95.1402 62.0376 96.0682V103H60.3615V96.1818C60.3615 95.3248 60.139 94.6572 59.6939 94.179C59.2488 93.696 58.638 93.4545 57.8615 93.4545C57.3265 93.4545 56.8482 93.5705 56.4268 93.8026C56.0102 94.0346 55.6811 94.3731 55.4396 94.8182C55.1982 95.2633 55.0774 95.803 55.0774 96.4375ZM68.3107 103.256C67.6194 103.256 66.9921 103.125 66.4286 102.865C65.8652 102.6 65.4177 102.219 65.0863 101.722C64.7549 101.22 64.5891 100.614 64.5891 99.9034C64.5891 99.2784 64.7122 98.7718 64.9585 98.3835C65.2047 97.9905 65.5337 97.6828 65.9457 97.4602C66.3576 97.2377 66.8121 97.072 67.3093 96.9631C67.8112 96.8494 68.3155 96.7595 68.8221 96.6932C69.485 96.608 70.0224 96.544 70.4343 96.5014C70.851 96.4541 71.154 96.3759 71.3434 96.267C71.5375 96.1581 71.6346 95.9687 71.6346 95.6989V95.642C71.6346 94.9413 71.4428 94.3968 71.0593 94.0085C70.6805 93.6203 70.1052 93.4261 69.3335 93.4261C68.5333 93.4261 67.9059 93.6013 67.4513 93.9517C66.9968 94.3021 66.6772 94.6761 66.4925 95.0739L64.9016 94.5057C65.1857 93.8428 65.5645 93.3267 66.038 92.9574C66.5162 92.5833 67.0371 92.3229 67.6005 92.1761C68.1687 92.0246 68.7274 91.9489 69.2766 91.9489C69.627 91.9489 70.0295 91.9915 70.484 92.0767C70.9433 92.1572 71.386 92.3253 71.8121 92.581C72.243 92.8366 72.6005 93.2225 72.8846 93.7386C73.1687 94.2547 73.3107 94.946 73.3107 95.8125V103H71.6346V101.523H71.5494C71.4357 101.759 71.2463 102.013 70.9812 102.283C70.716 102.553 70.3633 102.782 69.9229 102.972C69.4826 103.161 68.9452 103.256 68.3107 103.256ZM68.5664 101.75C69.2293 101.75 69.788 101.62 70.2425 101.359C70.7018 101.099 71.0475 100.763 71.2795 100.351C71.5162 99.9389 71.6346 99.5057 71.6346 99.0511V97.517C71.5636 97.6023 71.4073 97.6804 71.1658 97.7514C70.9291 97.8177 70.6545 97.8769 70.342 97.929C70.0342 97.9763 69.7335 98.0189 69.44 98.0568C69.1512 98.09 68.9168 98.1184 68.7369 98.142C68.3013 98.1989 67.8941 98.2912 67.5153 98.419C67.1412 98.5421 66.8382 98.7292 66.6062 98.9801C66.3789 99.2263 66.2653 99.5625 66.2653 99.9886C66.2653 100.571 66.4807 101.011 66.9116 101.31C67.3472 101.603 67.8988 101.75 68.5664 101.75ZM80.8018 103.227C79.7791 103.227 78.8984 102.986 78.1598 102.503C77.4212 102.02 76.853 101.355 76.4553 100.507C76.0575 99.6596 75.8587 98.6913 75.8587 97.6023C75.8587 96.4943 76.0623 95.5166 76.4695 94.669C76.8814 93.8168 77.4543 93.1515 78.1882 92.6733C78.9268 92.1903 79.7886 91.9489 80.7734 91.9489C81.5405 91.9489 82.2318 92.0909 82.8473 92.375C83.4628 92.6591 83.9671 93.0568 84.3601 93.5682C84.7531 94.0795 84.9969 94.6761 85.0916 95.358H83.4155C83.2876 94.8608 83.0036 94.4205 82.5632 94.0369C82.1276 93.6487 81.5405 93.4545 80.8018 93.4545C80.1484 93.4545 79.5755 93.625 79.0831 93.9659C78.5954 94.3021 78.2143 94.7779 77.9396 95.3935C77.6697 96.0043 77.5348 96.7216 77.5348 97.5455C77.5348 98.3883 77.6674 99.1222 77.9325 99.7472C78.2024 100.372 78.5812 100.857 79.0689 101.203C79.5613 101.549 80.139 101.722 80.8018 101.722C81.2375 101.722 81.6328 101.646 81.9879 101.494C82.343 101.343 82.6437 101.125 82.8899 100.841C83.1361 100.557 83.3113 100.216 83.4155 99.8182H85.0916C84.9969 100.462 84.7625 101.042 84.3885 101.558C84.0192 102.07 83.5291 102.477 82.9183 102.78C82.3123 103.078 81.6068 103.227 80.8018 103.227ZM89.1044 99.0227L89.076 96.9489H89.4169L94.1896 92.0909H96.2635L91.1783 97.233H91.0362L89.1044 99.0227ZM87.5419 103V88.4545H89.218V103H87.5419ZM94.4737 103L90.2124 97.6023L91.4055 96.4375L96.6044 103H94.4737Z" fill="white"/>
<rect opacity="0.01" x="40" y="32" width="56" height="56" fill="white"/>
<g clip-path="url(#clip1_0_98)">
<path fill-rule="evenodd" clip-rule="evenodd" d="M85 44.0464C82.7853 44.0464 80.9036 42.3071 80.9036 40H55.1486C55.1486 42.304 53.2163 44.0464 51 44.0464V46.6671H85V44.0464ZM52.7004 49.9999L57.9067 80H78.2008L83.3013 49.9999H52.7004ZM79.2861 53.3264L78.1519 60H57.954L56.8198 53.3264H79.2861ZM60.7872 76.6672L59.6532 70.0001H76.4528L75.3203 76.6672H60.7872Z" fill="white"/>
</g>
</g>
<defs>
<linearGradient id="paint0_linear_0_98" x1="35.9565" y1="166.202" x2="157.019" y2="119.302" gradientUnits="userSpaceOnUse">
<stop stop-color="#FFCC21"/>
<stop offset="1" stop-color="#FF963C"/>
</linearGradient>
<clipPath id="clip0_0_98">
<rect width="136" height="136" fill="white"/>
</clipPath>
<clipPath id="clip1_0_98">
<rect width="34" height="40" fill="white" transform="translate(51 40)"/>
</clipPath>
</defs>
</svg>
