<svg width="136" height="136" viewBox="0 0 136 136" fill="none" xmlns="http://www.w3.org/2000/svg">
<path d="M10 34.5L68 1L126 34.5V101.5L68 135L10 101.5L10 34.5Z" fill="url(#paint0_linear_0_97)"/>
<path d="M43.4492 103H38.9606V88.4545H43.6481C45.0591 88.4545 46.2665 88.7457 47.2702 89.3281C48.274 89.9058 49.0434 90.7367 49.5785 91.821C50.1135 92.9006 50.381 94.1932 50.381 95.6989C50.381 97.214 50.1112 98.5185 49.5714 99.6122C49.0316 100.701 48.2456 101.539 47.2134 102.126C46.1812 102.709 44.9265 103 43.4492 103ZM40.7219 101.438H43.3356C44.5382 101.438 45.5349 101.205 46.3256 100.741C47.1164 100.277 47.7058 99.617 48.0941 98.7599C48.4824 97.9029 48.6765 96.8826 48.6765 95.6989C48.6765 94.5246 48.4847 93.5137 48.1012 92.6662C47.7177 91.8139 47.1448 91.1605 46.3825 90.706C45.6201 90.2467 44.6708 90.017 43.5344 90.017H40.7219V101.438ZM53.1083 103V92.0909H54.7844V103H53.1083ZM53.9606 90.2727C53.6339 90.2727 53.3522 90.1615 53.1154 89.9389C52.8834 89.7164 52.7674 89.4489 52.7674 89.1364C52.7674 88.8239 52.8834 88.5563 53.1154 88.3338C53.3522 88.1113 53.6339 88 53.9606 88C54.2873 88 54.5666 88.1113 54.7987 88.3338C55.0354 88.5563 55.1538 88.8239 55.1538 89.1364C55.1538 89.4489 55.0354 89.7164 54.7987 89.9389C54.5666 90.1615 54.2873 90.2727 53.9606 90.2727ZM59.5305 96.4375V103H57.8544V92.0909H59.4737V93.7955H59.6158C59.8714 93.2415 60.2597 92.7964 60.7805 92.4602C61.3014 92.1193 61.9737 91.9489 62.7976 91.9489C63.5362 91.9489 64.1825 92.1004 64.7365 92.4034C65.2905 92.7017 65.7214 93.1562 66.0291 93.767C66.3369 94.3731 66.4908 95.1402 66.4908 96.0682V103H64.8146V96.1818C64.8146 95.3248 64.5921 94.6572 64.147 94.179C63.7019 93.696 63.0911 93.4545 62.3146 93.4545C61.7796 93.4545 61.3014 93.5705 60.88 93.8026C60.4633 94.0346 60.1342 94.3731 59.8928 94.8182C59.6513 95.2633 59.5305 95.803 59.5305 96.4375ZM71.2298 96.4375V103H69.5536V92.0909H71.1729V93.7955H71.315C71.5707 93.2415 71.9589 92.7964 72.4798 92.4602C73.0006 92.1193 73.6729 91.9489 74.4968 91.9489C75.2354 91.9489 75.8817 92.1004 76.4357 92.4034C76.9897 92.7017 77.4206 93.1562 77.7283 93.767C78.0361 94.3731 78.19 95.1402 78.19 96.0682V103H76.5138V96.1818C76.5138 95.3248 76.2913 94.6572 75.8462 94.179C75.4012 93.696 74.7904 93.4545 74.0138 93.4545C73.4788 93.4545 73.0006 93.5705 72.5792 93.8026C72.1625 94.0346 71.8335 94.3731 71.592 94.8182C71.3505 95.2633 71.2298 95.803 71.2298 96.4375ZM85.8267 103.227C84.7756 103.227 83.8688 102.995 83.1065 102.531C82.349 102.062 81.7642 101.409 81.3523 100.571C80.9451 99.7282 80.7415 98.7481 80.7415 97.6307C80.7415 96.5133 80.9451 95.5284 81.3523 94.6761C81.7642 93.8191 82.3371 93.1515 83.071 92.6733C83.8097 92.1903 84.6714 91.9489 85.6562 91.9489C86.2244 91.9489 86.7855 92.0436 87.3395 92.233C87.8935 92.4223 88.3977 92.7301 88.8523 93.1562C89.3068 93.5777 89.669 94.1364 89.9389 94.8324C90.2088 95.5284 90.3438 96.3854 90.3438 97.4034V98.1136H81.9347V96.6648H88.6392C88.6392 96.0492 88.5161 95.5 88.2699 95.017C88.0284 94.5341 87.6828 94.1529 87.233 93.8736C86.7879 93.5942 86.2623 93.4545 85.6562 93.4545C84.9886 93.4545 84.411 93.6203 83.9233 93.9517C83.4403 94.2784 83.0687 94.7045 82.8082 95.2301C82.5478 95.7557 82.4176 96.3191 82.4176 96.9205V97.8864C82.4176 98.7102 82.5597 99.4086 82.8438 99.9815C83.1326 100.55 83.5327 100.983 84.044 101.281C84.5554 101.575 85.1496 101.722 85.8267 101.722C86.267 101.722 86.6648 101.66 87.0199 101.537C87.3797 101.409 87.6899 101.22 87.9503 100.969C88.2107 100.713 88.4119 100.396 88.554 100.017L90.1733 100.472C90.0028 101.021 89.7164 101.504 89.3139 101.92C88.9115 102.332 88.4143 102.654 87.8224 102.886C87.2306 103.114 86.5653 103.227 85.8267 103.227ZM92.8935 103V92.0909H94.5128V93.7386H94.6264C94.8253 93.1989 95.1851 92.7609 95.706 92.4247C96.2268 92.0885 96.8139 91.9205 97.4673 91.9205C97.5904 91.9205 97.7443 91.9228 97.929 91.9276C98.1136 91.9323 98.2533 91.9394 98.348 91.9489V93.6534C98.2912 93.6392 98.161 93.6179 97.9574 93.5895C97.7585 93.5563 97.5478 93.5398 97.3253 93.5398C96.795 93.5398 96.3215 93.651 95.9048 93.8736C95.4929 94.0914 95.1662 94.3944 94.9247 94.7827C94.688 95.1662 94.5696 95.6042 94.5696 96.0966V103H92.8935Z" fill="white"/>
<rect opacity="0.01" x="40" y="28" width="56" height="56" fill="white"/>
<path d="M51.0234 74.2289C49.9344 75.316 49.9362 77.0846 51.0288 78.1788C52.123 79.2714 53.8917 79.2731 54.9805 78.1844L63.6829 69.4822L59.7255 65.525L51.0234 74.2289Z" fill="white"/>
<path d="M94.2807 41.3726L86.4311 49.2493L85.1201 47.9338L92.7092 39.7941L91.9738 39.0562L83.807 46.6162L82.494 45.3004L90.1175 37.1951L89.3244 36.3976L81.1828 43.9829L79.8698 42.6651L87.7191 34.7883L86.9351 34C86.9351 34 79.5451 39.8138 75.8966 42.8145C74.6176 43.8638 74.103 45.6404 74.2822 47.2911C74.528 49.523 74.7987 50.3888 73.895 51.2959L66.239 58.9764C56.4183 49.1179 45.6683 38.329 44.5616 37.2345C43.9106 36.5901 42.9776 36.5901 42.3931 37.177C40.3556 39.2217 46.5077 51.4365 54.612 61.6746C56.3017 59.97 57.839 58.4364 57.839 58.4364L77.5219 78.1858C78.7396 79.4082 80.5119 79.1255 81.4466 78.1858H81.4483C82.5317 77.0988 82.5317 75.333 81.4483 74.2457C79.3655 72.156 75.0964 67.8683 70.1764 62.9273L77.8245 55.2522C78.7432 54.3307 79.5915 54.6134 81.8161 54.8742C83.4858 55.0705 85.3137 54.5666 86.3668 53.2544C89.3334 49.5481 95.0001 42.0928 95.0001 42.0928L94.2807 41.3726Z" fill="white"/>
<defs>
<linearGradient id="paint0_linear_0_97" x1="35.9565" y1="166.202" x2="157.019" y2="119.302" gradientUnits="userSpaceOnUse">
<stop stop-color="#FFCC21"/>
<stop offset="1" stop-color="#FF963C"/>
</linearGradient>
</defs>
</svg>
