<svg width="136" height="136" viewBox="0 0 136 136" fill="none" xmlns="http://www.w3.org/2000/svg">
<path d="M10 34.5L68 1L126 34.5V101.5L68 135L10 101.5L10 34.5Z" fill="url(#paint0_linear_0_96)"/>
<path d="M40.9821 103V88.4545H42.7434V101.438H49.5048V103H40.9821ZM58.8798 98.5398V92.0909H60.5559V103H58.8798V101.153H58.7662C58.5105 101.707 58.1127 102.179 57.573 102.567C57.0332 102.95 56.3514 103.142 55.5275 103.142C54.8457 103.142 54.2396 102.993 53.7093 102.695C53.179 102.392 52.7624 101.937 52.4593 101.331C52.1563 100.72 52.0048 99.9508 52.0048 99.0227V92.0909H53.6809V98.9091C53.6809 99.7045 53.9035 100.339 54.3485 100.812C54.7984 101.286 55.3713 101.523 56.0673 101.523C56.484 101.523 56.9077 101.416 57.3386 101.203C57.7742 100.99 58.1388 100.663 58.4324 100.223C58.7306 99.7827 58.8798 99.2216 58.8798 98.5398ZM65.302 96.4375V103H63.6259V92.0909H65.2452V93.7955H65.3873C65.6429 93.2415 66.0312 92.7964 66.552 92.4602C67.0729 92.1193 67.7452 91.9489 68.5691 91.9489C69.3077 91.9489 69.954 92.1004 70.508 92.4034C71.062 92.7017 71.4928 93.1562 71.8006 93.767C72.1084 94.3731 72.2623 95.1402 72.2623 96.0682V103H70.5861V96.1818C70.5861 95.3248 70.3636 94.6572 69.9185 94.179C69.4734 93.696 68.8626 93.4545 68.0861 93.4545C67.5511 93.4545 67.0729 93.5705 66.6515 93.8026C66.2348 94.0346 65.9057 94.3731 65.6642 94.8182C65.4228 95.2633 65.302 95.803 65.302 96.4375ZM79.7569 103.227C78.7342 103.227 77.8535 102.986 77.1149 102.503C76.3762 102.02 75.8081 101.355 75.4103 100.507C75.0126 99.6596 74.8137 98.6913 74.8137 97.6023C74.8137 96.4943 75.0173 95.5166 75.4245 94.669C75.8365 93.8168 76.4094 93.1515 77.1433 92.6733C77.8819 92.1903 78.7437 91.9489 79.7285 91.9489C80.4956 91.9489 81.1868 92.0909 81.8024 92.375C82.4179 92.6591 82.9222 93.0568 83.3152 93.5682C83.7082 94.0795 83.952 94.6761 84.0467 95.358H82.3706C82.2427 94.8608 81.9586 94.4205 81.5183 94.0369C81.0827 93.6487 80.4956 93.4545 79.7569 93.4545C79.1035 93.4545 78.5306 93.625 78.0382 93.9659C77.5505 94.3021 77.1693 94.7779 76.8947 95.3935C76.6248 96.0043 76.4899 96.7216 76.4899 97.5455C76.4899 98.3883 76.6225 99.1222 76.8876 99.7472C77.1575 100.372 77.5363 100.857 78.024 101.203C78.5164 101.549 79.094 101.722 79.7569 101.722C80.1925 101.722 80.5879 101.646 80.943 101.494C81.2981 101.343 81.5988 101.125 81.845 100.841C82.0912 100.557 82.2664 100.216 82.3706 99.8182H84.0467C83.952 100.462 83.7176 101.042 83.3436 101.558C82.9743 102.07 82.4842 102.477 81.8734 102.78C81.2673 103.078 80.5618 103.227 79.7569 103.227ZM88.1731 96.4375V103H86.497V88.4545H88.1731V93.7955H88.3152C88.5708 93.232 88.9544 92.7846 89.4657 92.4531C89.9818 92.117 90.6684 91.9489 91.5254 91.9489C92.2688 91.9489 92.9198 92.098 93.4785 92.3963C94.0372 92.6899 94.4705 93.142 94.7782 93.7528C95.0907 94.3589 95.247 95.1307 95.247 96.0682V103H93.5708V96.1818C93.5708 95.3153 93.3459 94.6454 92.8961 94.1719C92.4511 93.6937 91.8332 93.4545 91.0424 93.4545C90.4932 93.4545 90.0008 93.5705 89.5652 93.8026C89.1343 94.0346 88.7934 94.3731 88.5424 94.8182C88.2962 95.2633 88.1731 95.803 88.1731 96.4375Z" fill="white"/>
<rect opacity="0.01" x="40" y="28" width="56" height="56" fill="white"/>
<path d="M51.0234 74.2289C49.9344 75.316 49.9362 77.0846 51.0288 78.1788C52.123 79.2714 53.8917 79.2731 54.9805 78.1844L63.6829 69.4822L59.7255 65.525L51.0234 74.2289Z" fill="white"/>
<path d="M94.2807 41.3726L86.4311 49.2493L85.1201 47.9338L92.7092 39.7941L91.9738 39.0562L83.807 46.6162L82.494 45.3004L90.1175 37.1951L89.3244 36.3976L81.1828 43.9829L79.8698 42.6651L87.7191 34.7883L86.9351 34C86.9351 34 79.5451 39.8138 75.8966 42.8145C74.6176 43.8638 74.103 45.6404 74.2822 47.2911C74.528 49.523 74.7987 50.3888 73.895 51.2959L66.239 58.9764C56.4183 49.1179 45.6683 38.329 44.5616 37.2345C43.9106 36.5901 42.9776 36.5901 42.3931 37.177C40.3556 39.2217 46.5077 51.4365 54.612 61.6746C56.3017 59.97 57.839 58.4364 57.839 58.4364L77.5219 78.1858C78.7396 79.4082 80.5119 79.1255 81.4466 78.1858H81.4483C82.5317 77.0988 82.5317 75.333 81.4483 74.2457C79.3655 72.156 75.0964 67.8683 70.1764 62.9273L77.8245 55.2522C78.7432 54.3307 79.5915 54.6134 81.8161 54.8742C83.4858 55.0705 85.3137 54.5666 86.3668 53.2544C89.3334 49.5481 95.0001 42.0928 95.0001 42.0928L94.2807 41.3726Z" fill="white"/>
<defs>
<linearGradient id="paint0_linear_0_96" x1="35.9565" y1="166.202" x2="157.019" y2="119.302" gradientUnits="userSpaceOnUse">
<stop stop-color="#FFCC21"/>
<stop offset="1" stop-color="#FF963C"/>
</linearGradient>
</defs>
</svg>
